<svg xmlns="http://www.w3.org/2000/svg" width="402" height="404">
  <path fill="#00a1e4" d="m344 288l-144.6 102.4 0-182.55 145.97-94.65 -1.37 174.79zM55.89 288.21"/>
  <path fill="#00b9f2" d="m55.89 288.21l144.6 102.4 0-182.55 -145.97-94.65 1.37 174.79z"/>
  <path fill="#008ed4" d="m200.49 53.17l145.97 61.12 -145.97 94.65 -145.97-94.65 145.97-61.12z"/>
  <path fill="#0093d8" opacity="0.6" d="m230.03 392.37c3.03 7.85 11.1 11.43 18.03 7.99l146.5-98.86c5.59-5.18 6.83-14.53 7.05-20.44l0.39-152.12c-3.03-7.85-11.1-11.43-18.03-8l-149.24 97.31c-5.05 4.65-7.86 10.88-7.05 20.44l2.35 153.67z"/>
  <path fill="#81d4f7" opacity="0.6" d="m172.97 392.37c-3.03 7.85-11.1 11.43-18.02 7.99l-146.5-98.86c-6.61-5.19-7.44-11.56-7.05-20.44l-0.39-152.12c3.03-7.85 11.1-11.43 18.03-7.99l149.24 97.31c5.47 5.58 7.42 10.49 7.05 20.44l-2.35 153.67z"/>
  <path fill="#0066b3" opacity="0.6" d="m340.3 63.77c5.42 5.97 5.55 15.79 0.29 21.94 -0.96 0.59-1.91 1.18-2.87 1.77 -2.6 1.61-5.21 3.2-7.81 4.8 -3.95 2.44-7.9 4.88-11.86 7.31 -4.88 3-9.76 6.01-14.63 9.02 -5.42 3.34-10.85 6.67-16.26 10.01 -5.73 3.53-11.46 7.08-17.2 10.6 -5.59 3.43-11.17 6.87-16.74 10.32 -4.97 3.08-9.96 6.11-14.94 9.17 -4.34 2.67-8.64 5.41-13 8.04 -3.52 2.12-6.95 4.28-10.26 6.81 -3.17 2.42-6.45 4.98-10.26 5.88 -4.78 1.13-9-1.55-12.94-4.3 -4.36-3.04-8.93-5.61-13.42-8.4 -4.09-2.54-8.18-5.1-12.26-7.66 -5.1-3.2-10.2-6.38-15.3-9.57 -5.74-3.59-11.48-7.19-17.22-10.78 -5.78-3.61-11.55-7.22-17.33-10.84 -5.68-3.55-11.35-7.11-17.03-10.66 -5.13-3.21-10.25-6.42-15.38-9.62 -4.22-2.64-8.44-5.28-12.66-7.92 -3-1.88-6.01-3.76-9.01-5.64 -1.34-0.84-2.68-1.68-4.02-2.51 -0.08-0.05-0.21-0.1-0.28-0.17 -5.42-5.97-5.55-15.79-0.29-21.94l131.65-56.14c1.61-1.89 17.58-2.28 19.35-0.33l131.64 60.81z"/>
</svg>
